<?xml version="1.0" encoding="utf-8"?>
<!-- Generator: Adobe Illustrator 22.0.1, SVG Export Plug-In . SVG Version: 6.00 Build 0)  -->
<svg version="1.1" id="Calque_1" xmlns="http://www.w3.org/2000/svg" xmlns:xlink="http://www.w3.org/1999/xlink" x="0px" y="0px"
	 viewBox="0 0 422.4 383.7" style="enable-background:new 0 0 422.4 383.7;" xml:space="preserve">
<style type="text/css">
	.st0{fill:#6FC660;stroke:#000000;stroke-width:13.6542;stroke-miterlimit:10;}
	.st1{fill:url(#SVGID_1_);}
	.st2{fill:#FF6700;}
	.st3{fill:#FF4800;}
	.st4{fill:#E92700;}
	.st5{opacity:0.1;}
	.st6{fill:#FFFFFF;}
	.st7{opacity:0.1;fill:#FFFFFF;}
</style>
<ellipse class="st0" cx="221.6" cy="171.7" rx="159.6" ry="155.7"/>
<g>
	<linearGradient id="SVGID_1_" gradientUnits="userSpaceOnUse" x1="76.1774" y1="234.2819" x2="368.3775" y2="234.2819">
		<stop  offset="0" style="stop-color:#942900"/>
		<stop  offset="1" style="stop-color:#000000"/>
	</linearGradient>
	<path class="st1" d="M76.2,215.9l84.3-68.3l124.5,24.9l83.4,43.4c0,0-28.7,108.3-148.7,105C219.7,320.9,110.1,326.3,76.2,215.9z"/>
</g>
<path class="st2" d="M171.6,154V96.1c0,0-4.8,4.8-9.6,2.4c0,0-4.8-4.8-2.4-12.1c0,0,2.4-7.2,12.1-4.8c0,0,12.1,2.4,12.1,19.3v53
	H171.6z"/>
<path class="st3" d="M181.5,163.6V73.2c0,0-5.8,5.8-11.7,2.9c0,0-5.8-5.8-2.9-14.6c0,0,2.9-8.8,14.6-5.8c0,0,14.6,2.9,14.6,23.4
	v84.6H181.5z"/>
<path class="st4" d="M195.5,182.9V32.2c0,0-8.9,8.9-17.9,4.5c0,0-8.9-8.9-4.5-22.4c0,0,4.5-13.4,22.4-8.9c0,0,22.4,4.5,22.4,35.8
	v141.7H195.5z"/>
<path class="st4" d="M264.2,185.3v-57.9c0,0,4.9,4.8,9.7,2.4c0,0,4.9-4.8,2.4-12.1c0,0-2.4-7.2-12.2-4.8c0,0-12.2,2.4-12.2,19.3v53
	H264.2z"/>
<path class="st2" d="M254.1,194.9v-90.4c0,0,5.9,5.8,11.8,2.9c0,0,5.9-5.8,3-14.6c0,0-3-8.8-14.8-5.8c0,0-14.8,2.9-14.8,23.4v84.6
	H254.1z"/>
<path class="st3" d="M240.1,214.2V63.6c0,0,9,8.9,18.1,4.5c0,0,9-8.9,4.5-22.4c0,0-4.5-13.4-22.6-8.9c0,0-22.6,4.5-22.6,35.8v141.7
	H240.1z"/>
<g class="st5">
	<polygon class="st6" points="188.5,163.6 181.3,163.6 181.3,154 176.5,154 176.5,76.8 188.5,67.1 	"/>
</g>
<polygon class="st7" points="258.4,108.1 248.8,98.5 248.8,185.3 258.4,185.3 "/>
<g>
	<path d="M30.4,358.6h2.6v17.1h9.3v2.2h-12V358.6z"/>
	<path d="M52.7,358.6v7.2h-2.2v-7.2H52.7z"/>
	<path d="M74,370.1v1.2H63.7v0.1c0,1.6,0.4,2.8,1.2,3.7c0.8,0.9,2,1.3,3.5,1.3c0.8,0,1.6-0.1,2.4-0.4c0.8-0.2,1.7-0.6,2.7-1.1v2.4
		c-0.9,0.4-1.8,0.6-2.6,0.8c-0.8,0.2-1.7,0.3-2.4,0.3c-2.3,0-4-0.7-5.3-2c-1.3-1.4-1.9-3.2-1.9-5.6c0-2.3,0.6-4.2,1.9-5.5
		c1.2-1.4,2.9-2.1,5-2.1c1.8,0,3.3,0.6,4.4,1.9C73.5,366.2,74,367.9,74,370.1z M71.6,369.4c0-1.4-0.4-2.5-1-3.2
		c-0.6-0.7-1.5-1.1-2.7-1.1c-1.1,0-2.1,0.4-2.8,1.1c-0.7,0.8-1.2,1.8-1.3,3.2L71.6,369.4z M69.6,356.7h2.6l-4.2,4.9h-2L69.6,356.7z"
		/>
	<path d="M90.5,366.4c-0.5-0.4-1-0.7-1.6-0.9c-0.5-0.2-1.1-0.3-1.7-0.3c-1.5,0-2.6,0.5-3.4,1.4c-0.8,0.9-1.2,2.3-1.2,4v7.2h-2.4
		v-14.5h2.4v2.8c0.4-1,1-1.8,1.8-2.4c0.8-0.5,1.8-0.8,2.9-0.8c0.6,0,1.1,0.1,1.6,0.2s1,0.4,1.5,0.7V366.4z"/>
	<path d="M94.1,372.5v-9h2.4v9c0,1.3,0.2,2.3,0.7,2.9s1.2,0.9,2.1,0.9c1.1,0,2-0.4,2.6-1.2s0.9-1.9,0.9-3.4v-8.2h2.4v14.5h-2.4v-2.2
		c-0.4,0.8-1,1.5-1.7,1.9c-0.7,0.4-1.6,0.6-2.6,0.6c-1.5,0-2.6-0.5-3.3-1.5C94.4,375.9,94.1,374.4,94.1,372.5z"/>
	<path d="M112.4,376.1v7.3H110v-20h2.4v1.9c0.4-0.7,0.9-1.3,1.6-1.6c0.7-0.4,1.4-0.6,2.3-0.6c1.8,0,3.1,0.7,4.1,2
		c1,1.4,1.5,3.2,1.5,5.6c0,2.4-0.5,4.2-1.5,5.5c-1,1.3-2.4,2-4.1,2c-0.9,0-1.7-0.2-2.3-0.6C113.3,377.4,112.7,376.8,112.4,376.1z
		 M119.4,370.7c0-1.8-0.3-3.2-0.9-4.2c-0.6-0.9-1.4-1.4-2.6-1.4c-1.2,0-2,0.5-2.6,1.4s-0.9,2.3-0.9,4.2c0,1.8,0.3,3.2,0.9,4.2
		c0.6,1,1.5,1.4,2.6,1.4c1.1,0,2-0.5,2.6-1.4S119.4,372.6,119.4,370.7z"/>
	<path d="M131.4,359.3v4.1h5.4v1.9h-5.4v7.9c0,1.1,0.2,1.8,0.6,2.2c0.4,0.4,1.1,0.6,2.1,0.6h2.7v1.9h-2.9c-1.8,0-3-0.4-3.8-1.1
		c-0.7-0.7-1.1-2-1.1-3.7v-7.9h-3.9v-1.9h3.9v-4.1H131.4z"/>
	<path d="M142.8,363.4h6.1v12.7h4.7v1.9h-11.8v-1.9h4.7v-10.8h-3.7V363.4z M146.5,357.8h2.4v3h-2.4V357.8z"/>
	<path d="M163.4,363.1c2,0,3.6,0.7,4.6,2s1.6,3.2,1.6,5.7c0,2.5-0.5,4.4-1.6,5.7c-1.1,1.3-2.6,2-4.6,2c-2,0-3.5-0.7-4.6-2
		c-1.1-1.3-1.6-3.2-1.6-5.7c0-2.5,0.5-4.4,1.6-5.7C159.9,363.7,161.4,363.1,163.4,363.1z M163.4,365.1c-1.2,0-2.1,0.5-2.7,1.4
		c-0.6,0.9-0.9,2.3-0.9,4.2c0,1.8,0.3,3.2,0.9,4.2c0.6,0.9,1.5,1.4,2.7,1.4c1.2,0,2.1-0.5,2.8-1.4c0.6-0.9,0.9-2.3,0.9-4.2
		c0-1.8-0.3-3.2-0.9-4.2C165.5,365.6,164.6,365.1,163.4,365.1z"/>
	<path d="M185,369v9h-2.4v-9c0-1.3-0.2-2.3-0.7-2.9c-0.5-0.6-1.2-0.9-2.2-0.9c-1.1,0-2,0.4-2.6,1.2c-0.6,0.8-0.9,1.9-0.9,3.4v8.2
		h-2.4v-14.5h2.4v2.2c0.4-0.8,1-1.5,1.7-1.9s1.6-0.6,2.6-0.6c1.5,0,2.6,0.5,3.3,1.5C184.6,365.5,185,367,185,369z"/>
	<path d="M214.5,365.3v-7.5h2.4v20.2h-2.4v-1.8c-0.4,0.7-0.9,1.3-1.6,1.6c-0.7,0.4-1.4,0.6-2.3,0.6c-1.8,0-3.1-0.7-4.1-2
		c-1-1.4-1.5-3.2-1.5-5.6c0-2.4,0.5-4.2,1.5-5.5c1-1.3,2.4-2,4.1-2c0.9,0,1.6,0.2,2.3,0.6C213.5,364,214.1,364.6,214.5,365.3z
		 M207.4,370.7c0,1.8,0.3,3.2,0.9,4.2c0.6,0.9,1.5,1.4,2.6,1.4s2-0.5,2.6-1.4c0.6-0.9,0.9-2.3,0.9-4.2c0-1.8-0.3-3.2-0.9-4.2
		c-0.6-0.9-1.5-1.4-2.6-1.4s-2,0.5-2.6,1.4C207.7,367.5,207.4,368.9,207.4,370.7z"/>
	<path d="M233.7,370.1v1.2h-10.3v0.1c0,1.6,0.4,2.8,1.2,3.7c0.8,0.9,2,1.3,3.5,1.3c0.8,0,1.6-0.1,2.4-0.4c0.8-0.2,1.7-0.6,2.7-1.1
		v2.4c-0.9,0.4-1.8,0.6-2.6,0.8c-0.8,0.2-1.7,0.3-2.4,0.3c-2.3,0-4-0.7-5.3-2s-1.9-3.2-1.9-5.6c0-2.3,0.6-4.2,1.9-5.5
		c1.2-1.4,2.9-2.1,5-2.1c1.8,0,3.3,0.6,4.4,1.9C233.2,366.2,233.7,367.9,233.7,370.1z M231.3,369.4c0-1.4-0.4-2.5-1-3.2
		c-0.6-0.7-1.5-1.1-2.7-1.1c-1.1,0-2.1,0.4-2.8,1.1c-0.7,0.8-1.2,1.8-1.3,3.2L231.3,369.4z"/>
	<path d="M247.9,363.9v2.3c-0.7-0.4-1.4-0.7-2.1-0.9c-0.7-0.2-1.4-0.3-2.1-0.3c-1.1,0-1.9,0.2-2.4,0.5s-0.8,0.9-0.8,1.6
		c0,0.6,0.2,1.1,0.6,1.5c0.4,0.3,1.4,0.6,3,0.9l1,0.2c1.2,0.2,2.1,0.7,2.7,1.3c0.6,0.7,0.9,1.5,0.9,2.6c0,1.4-0.5,2.6-1.5,3.4
		c-1,0.8-2.4,1.2-4.2,1.2c-0.7,0-1.5-0.1-2.3-0.2c-0.8-0.2-1.6-0.4-2.6-0.7V375c0.9,0.5,1.7,0.8,2.6,1c0.8,0.2,1.6,0.3,2.3,0.3
		c1.1,0,1.9-0.2,2.4-0.6c0.6-0.4,0.9-1,0.9-1.8c0-1.1-1.1-1.9-3.2-2.3l-0.1,0l-0.9-0.2c-1.4-0.3-2.4-0.7-3-1.4
		c-0.6-0.6-0.9-1.5-0.9-2.6c0-1.4,0.5-2.5,1.4-3.2s2.3-1.1,4-1.1c0.8,0,1.5,0.1,2.2,0.2S247.2,363.7,247.9,363.9z"/>
	<path d="M267.8,358.6h14.8v2.2h-6v17.1h-2.6v-17.1h-6.1V358.6z"/>
	<path d="M297.6,370.1v1.2h-10.3v0.1c0,1.6,0.4,2.8,1.2,3.7c0.8,0.9,2,1.3,3.5,1.3c0.8,0,1.6-0.1,2.4-0.4c0.8-0.2,1.7-0.6,2.7-1.1
		v2.4c-0.9,0.4-1.8,0.6-2.6,0.8c-0.8,0.2-1.7,0.3-2.4,0.3c-2.3,0-4-0.7-5.3-2s-1.9-3.2-1.9-5.6c0-2.3,0.6-4.2,1.9-5.5
		c1.2-1.4,2.9-2.1,5-2.1c1.8,0,3.3,0.6,4.4,1.9C297.1,366.2,297.6,367.9,297.6,370.1z M295.2,369.4c0-1.4-0.4-2.5-1-3.2
		c-0.6-0.7-1.5-1.1-2.7-1.1c-1.1,0-2.1,0.4-2.8,1.1c-0.7,0.8-1.2,1.8-1.3,3.2L295.2,369.4z"/>
	<path d="M312.9,377.2c-0.6,0.4-1.3,0.6-2,0.8c-0.7,0.2-1.4,0.3-2.1,0.3c-2.2,0-4-0.7-5.3-2c-1.3-1.3-1.9-3.2-1.9-5.6
		c0-2.4,0.6-4.2,1.9-5.6c1.3-1.3,3-2,5.3-2c0.7,0,1.4,0.1,2,0.3s1.3,0.5,2,0.8v2.5c-0.6-0.6-1.3-1-1.9-1.2c-0.6-0.3-1.4-0.4-2.2-0.4
		c-1.5,0-2.6,0.5-3.4,1.5c-0.8,1-1.2,2.3-1.2,4.1c0,1.8,0.4,3.2,1.2,4.1s2,1.5,3.4,1.5c0.8,0,1.6-0.1,2.2-0.4s1.3-0.6,1.8-1.2V377.2
		z"/>
	<path d="M328.7,369v9h-2.4v-9c0-1.3-0.2-2.3-0.7-2.9c-0.5-0.6-1.2-0.9-2.2-0.9c-1.1,0-2,0.4-2.6,1.2c-0.6,0.8-0.9,1.9-0.9,3.4v8.2
		h-2.4v-20.2h2.4v7.8c0.4-0.8,1-1.5,1.7-1.9s1.6-0.6,2.6-0.6c1.5,0,2.6,0.5,3.3,1.5C328.4,365.5,328.7,367,328.7,369z"/>
	<path d="M343.7,363.9v2.3c-0.7-0.4-1.4-0.7-2.1-0.9c-0.7-0.2-1.4-0.3-2.1-0.3c-1.1,0-1.9,0.2-2.4,0.5s-0.8,0.9-0.8,1.6
		c0,0.6,0.2,1.1,0.6,1.5c0.4,0.3,1.4,0.6,3,0.9l1,0.2c1.2,0.2,2.1,0.7,2.7,1.3c0.6,0.7,0.9,1.5,0.9,2.6c0,1.4-0.5,2.6-1.5,3.4
		c-1,0.8-2.4,1.2-4.2,1.2c-0.7,0-1.5-0.1-2.3-0.2c-0.8-0.2-1.6-0.4-2.6-0.7V375c0.9,0.5,1.7,0.8,2.6,1c0.8,0.2,1.6,0.3,2.3,0.3
		c1.1,0,1.9-0.2,2.4-0.6c0.6-0.4,0.9-1,0.9-1.8c0-1.1-1.1-1.9-3.2-2.3l-0.1,0l-0.9-0.2c-1.4-0.3-2.4-0.7-3-1.4
		c-0.6-0.6-0.9-1.5-0.9-2.6c0-1.4,0.5-2.5,1.4-3.2s2.3-1.1,4-1.1c0.8,0,1.5,0.1,2.2,0.2S343,363.7,343.7,363.9z"/>
</g>
<g>
	<g>
		<g>
			<polygon class="st6" points="32,338.2 32,321.5 23.7,321.5 23.7,304.7 15.3,304.7 15.3,279.6 6.9,279.6 6.9,257.4 29.1,257.4 
				29.1,274.1 37.5,274.1 37.5,299.3 48.8,299.3 48.8,274.1 57.2,274.1 57.2,257.4 79.4,257.4 79.4,279.6 71,279.6 71,304.7 
				62.6,304.7 62.6,321.5 54.3,321.5 54.3,338.2 			"/>
			<path d="M76.7,260.1v16.8h-8.4V302h-8.4v16.8h-8.4v16.8H34.8v-16.8h-8.4V302H18v-25.1H9.6v-16.8h16.8v16.8h8.4V302h16.8v-25.1
				h8.4v-16.8H76.7 M82.1,254.6h-5.5H59.9h-5.5v5.5v11.3h-2.9h-5.5v5.5v19.7h-5.8v-19.7v-5.5h-5.5h-2.9v-11.3v-5.5h-5.5H9.6H4.2v5.5
				v16.8v5.5h5.5h2.9V302v5.5H18h2.9v11.3v5.5h5.5h2.9v11.3v5.5h5.5h16.8H57v-5.5v-11.3h2.9h5.5v-5.5v-11.3h2.9h5.5V302v-19.7h2.9
				h5.5v-5.5v-16.8V254.6L82.1,254.6z"/>
		</g>
		<g>
			<path class="st6" d="M90.7,338.2v-8.4h-8.4v-39h8.4v-8.4h39v8.4h8.4v39h-8.4v8.4H90.7z M115.8,324.4v-28.1h-11.3v28.1H115.8z"/>
			<path d="M126.9,285.2v8.4h8.4v33.5h-8.4v8.4H93.4v-8.4H85v-33.5h8.4v-8.4H126.9 M101.8,327.1h16.8v-33.5h-16.8V327.1
				 M132.4,279.8h-5.5H93.4H88v5.5v2.9H85h-5.5v5.5v33.5v5.5H85H88v2.9v5.5h5.5h33.5h5.5v-5.5v-2.9h2.9h5.5v-5.5v-33.5v-5.5h-5.5
				h-2.9v-2.9V279.8L132.4,279.8z M107.3,299.1h5.8v22.6h-5.8V299.1L107.3,299.1z"/>
		</g>
		<g>
			<rect x="141" y="257.4" class="st6" width="22.2" height="80.9"/>
			<path d="M160.4,260.1v75.4h-16.8v-75.4H160.4 M165.9,254.6h-5.5h-16.8h-5.5v5.5v75.4v5.5h5.5h16.8h5.5v-5.5v-75.4V254.6
				L165.9,254.6z"/>
		</g>
		<g>
			<polygon class="st6" points="174.5,338.2 174.5,329.9 166.1,329.9 166.1,290.9 174.5,290.9 174.5,282.5 213.4,282.5 213.4,290.9 
				221.8,290.9 221.8,304.7 199.6,304.7 199.6,296.3 188.3,296.3 188.3,324.4 199.6,324.4 199.6,316 221.8,316 221.8,329.9 
				213.4,329.9 213.4,338.2 			"/>
			<path d="M210.7,285.2v8.4h8.4v8.4h-16.8v-8.4h-16.8v33.5h16.8v-8.4h16.8v8.4h-8.4v8.4h-33.5v-8.4h-8.4v-33.5h8.4v-8.4H210.7
				 M216.2,279.8h-5.5h-33.5h-5.5v5.5v2.9h-2.9h-5.5v5.5v33.5v5.5h5.5h2.9v2.9v5.5h5.5h33.5h5.5v-5.5v-2.9h2.9h5.5v-5.5v-8.4v-5.5
				h-5.5h-16.8h-5.5v5.5v2.9H191v-22.6h5.8v2.9v5.5h5.5h16.8h5.5V302v-8.4v-5.5h-5.5h-2.9v-2.9V279.8L216.2,279.8z"/>
		</g>
		<g>
			<path class="st6" d="M233.1,338.2v-8.4h-8.4v-22.2h8.4v-8.4h25.1v-2.9h-25.1v-13.8h39v8.4h8.4v47.4H233.1z M258.3,324.4v-11.3
				H247v11.3H258.3z"/>
			<path d="M269.4,285.2v8.4h8.4v41.9h-41.9v-8.4h-8.4v-16.8h8.4V302H261v-8.4h-25.1v-8.4H269.4 M244.2,327.1H261v-16.8h-16.8V327.1
				 M274.8,279.8h-5.5h-33.5h-5.5v5.5v8.4v5.5v2.9v2.9h-2.9H222v5.5v16.8v5.5h5.5h2.9v2.9v5.5h5.5h41.9h5.5v-5.5v-41.9v-5.5h-5.5
				h-2.9v-2.9V279.8L274.8,279.8z M249.7,315.8h5.8v5.8h-5.8V315.8L249.7,315.8z"/>
		</g>
		<g>
			<polygon class="st6" points="333.7,338.2 333.7,296.3 330.7,296.3 330.7,338.2 308.5,338.2 308.5,296.3 305.6,296.3 305.6,338.2 
				283.4,338.2 283.4,282.5 347.5,282.5 347.5,290.9 355.9,290.9 355.9,338.2 			"/>
			<path d="M344.8,285.2v8.4h8.4v41.9h-16.8v-41.9H328v41.9h-16.8v-41.9h-8.4v41.9h-16.8v-50.3H344.8 M350.2,279.8h-5.5h-58.6h-5.5
				v5.5v50.3v5.5h5.5h16.8h5.5h2.9H328h5.5h2.9h16.8h5.5v-5.5v-41.9v-5.5h-5.5h-2.9v-2.9V279.8L350.2,279.8z"/>
		</g>
		<g>
			<path class="st6" d="M358.8,363.4v-80.9h47.4v8.4h8.4v39h-8.4v8.4H381v25.1H358.8z M392.3,324.4v-28.1H381v28.1H392.3z"/>
			<path d="M403.4,285.2v8.4h8.4v33.5h-8.4v8.4h-25.1v25.1h-16.8v-75.4H403.4 M378.3,327.1H395v-33.5h-16.8V327.1 M408.9,279.8h-5.5
				h-41.9h-5.5v5.5v75.4v5.5h5.5h16.8h5.5v-5.5V341h19.7h5.5v-5.5v-2.9h2.9h5.5v-5.5v-33.5v-5.5h-5.5h-2.9v-2.9V279.8L408.9,279.8z
				 M383.7,299.1h5.8v22.6h-5.8V299.1L383.7,299.1z"/>
		</g>
	</g>
</g>
</svg>
